<mxfile host="app.diagrams.net" modified="2022-12-28T02:52:27.522Z" agent="5.0 (Windows NT 10.0; Win64; x64) AppleWebKit/537.36 (KHTML, like Gecko) Chrome/108.0.0.0 Safari/537.36 Edg/108.0.1462.54" etag="EDeesbRCtwrFaxDTADfN" version="20.7.4" type="github">
  <diagram id="pGKcQqe7rzBw23-9qWBj" name="第 1 页">
    <mxGraphModel dx="559" dy="369" grid="1" gridSize="10" guides="1" tooltips="1" connect="1" arrows="1" fold="1" page="1" pageScale="1" pageWidth="827" pageHeight="1169" math="0" shadow="0">
      <root>
        <mxCell id="0" />
        <mxCell id="1" parent="0" />
        <mxCell id="TVr60Wt9lXtjHCnUE2Si-1" value="研究目标" style="rounded=0;whiteSpace=wrap;html=1;dashed=1;verticalAlign=top;" vertex="1" parent="1">
          <mxGeometry x="40" y="40" width="160" height="190" as="geometry" />
        </mxCell>
      </root>
    </mxGraphModel>
  </diagram>
</mxfile>
